<mxfile host="app.diagrams.net" modified="2021-04-20T10:17:43.980Z" agent="5.0 (Windows NT 10.0; Win64; x64) AppleWebKit/537.36 (KHTML, like Gecko) Chrome/89.0.4389.128 Safari/537.36" etag="t4IBtpNO0ITXeH51Mnrw" version="14.6.3" type="github">
  <diagram id="prtHgNgQTEPvFCAcTncT" name="Page-1">
    <mxGraphModel dx="1117" dy="543" grid="1" gridSize="10" guides="1" tooltips="1" connect="1" arrows="1" fold="1" page="1" pageScale="1" pageWidth="827" pageHeight="1169" math="0" shadow="0">
      <root>
        <mxCell id="0" />
        <mxCell id="1" parent="0" />
        <mxCell id="jEkatf-dR_FKRXyiLeA1-9" value="Pool" style="swimlane;html=1;childLayout=stackLayout;resizeParent=1;resizeParentMax=0;startSize=20;" vertex="1" parent="1">
          <mxGeometry x="70" y="150" width="1530" height="1390" as="geometry" />
        </mxCell>
        <mxCell id="jEkatf-dR_FKRXyiLeA1-10" value="Student" style="swimlane;html=1;startSize=20;" vertex="1" parent="jEkatf-dR_FKRXyiLeA1-9">
          <mxGeometry y="20" width="160" height="1370" as="geometry" />
        </mxCell>
        <mxCell id="jEkatf-dR_FKRXyiLeA1-14" value="" style="shape=mxgraph.bpmn.shape;html=1;verticalLabelPosition=bottom;labelBackgroundColor=#ffffff;verticalAlign=top;align=center;perimeter=ellipsePerimeter;outlineConnect=0;outline=standard;symbol=general;" vertex="1" parent="jEkatf-dR_FKRXyiLeA1-10">
          <mxGeometry x="73" y="30" width="15" height="10" as="geometry" />
        </mxCell>
        <mxCell id="jEkatf-dR_FKRXyiLeA1-15" value="Access form" style="shape=ext;rounded=1;html=1;whiteSpace=wrap;" vertex="1" parent="jEkatf-dR_FKRXyiLeA1-10">
          <mxGeometry x="35" y="60" width="90" height="20" as="geometry" />
        </mxCell>
        <mxCell id="jEkatf-dR_FKRXyiLeA1-19" value="Fill form" style="shape=ext;rounded=1;html=1;whiteSpace=wrap;" vertex="1" parent="jEkatf-dR_FKRXyiLeA1-10">
          <mxGeometry x="35" y="110" width="90" height="20" as="geometry" />
        </mxCell>
        <mxCell id="jEkatf-dR_FKRXyiLeA1-23" value="Submit form" style="shape=ext;rounded=1;html=1;whiteSpace=wrap;" vertex="1" parent="jEkatf-dR_FKRXyiLeA1-10">
          <mxGeometry x="35" y="395" width="100" height="20" as="geometry" />
        </mxCell>
        <mxCell id="jEkatf-dR_FKRXyiLeA1-28" value="" style="rounded=0;whiteSpace=wrap;html=1;fillColor=#1A1A1A;" vertex="1" parent="jEkatf-dR_FKRXyiLeA1-10">
          <mxGeometry x="40" y="340" width="90" height="10" as="geometry" />
        </mxCell>
        <mxCell id="jEkatf-dR_FKRXyiLeA1-39" value="" style="endArrow=classic;html=1;exitX=0.415;exitY=1.067;exitDx=0;exitDy=0;exitPerimeter=0;entryX=0.423;entryY=-0.117;entryDx=0;entryDy=0;entryPerimeter=0;" edge="1" parent="jEkatf-dR_FKRXyiLeA1-10" source="jEkatf-dR_FKRXyiLeA1-28" target="jEkatf-dR_FKRXyiLeA1-23">
          <mxGeometry width="50" height="50" relative="1" as="geometry">
            <mxPoint x="320" y="300" as="sourcePoint" />
            <mxPoint x="370" y="250" as="targetPoint" />
          </mxGeometry>
        </mxCell>
        <mxCell id="jEkatf-dR_FKRXyiLeA1-40" value="" style="endArrow=classic;html=1;" edge="1" parent="jEkatf-dR_FKRXyiLeA1-10">
          <mxGeometry width="50" height="50" relative="1" as="geometry">
            <mxPoint x="80" y="40" as="sourcePoint" />
            <mxPoint x="80" y="60" as="targetPoint" />
          </mxGeometry>
        </mxCell>
        <mxCell id="jEkatf-dR_FKRXyiLeA1-43" value="Receive first respon email" style="shape=ext;rounded=1;html=1;whiteSpace=wrap;" vertex="1" parent="jEkatf-dR_FKRXyiLeA1-10">
          <mxGeometry x="30.5" y="698" width="100" height="30" as="geometry" />
        </mxCell>
        <mxCell id="jEkatf-dR_FKRXyiLeA1-142" value="Confirm to admin via email" style="shape=ext;rounded=1;html=1;whiteSpace=wrap;" vertex="1" parent="jEkatf-dR_FKRXyiLeA1-10">
          <mxGeometry x="25" y="780" width="100" height="30" as="geometry" />
        </mxCell>
        <mxCell id="jEkatf-dR_FKRXyiLeA1-153" value="willing to reschedule" style="rhombus;whiteSpace=wrap;html=1;" vertex="1" parent="jEkatf-dR_FKRXyiLeA1-10">
          <mxGeometry x="32.5" y="840" width="85" height="70" as="geometry" />
        </mxCell>
        <mxCell id="jEkatf-dR_FKRXyiLeA1-154" value="Yes" style="text;html=1;strokeColor=none;fillColor=none;align=center;verticalAlign=middle;whiteSpace=wrap;rounded=0;" vertex="1" parent="jEkatf-dR_FKRXyiLeA1-10">
          <mxGeometry x="112.5" y="839" width="40" height="20" as="geometry" />
        </mxCell>
        <mxCell id="jEkatf-dR_FKRXyiLeA1-155" value="No" style="text;html=1;strokeColor=none;fillColor=none;align=center;verticalAlign=middle;whiteSpace=wrap;rounded=0;" vertex="1" parent="jEkatf-dR_FKRXyiLeA1-10">
          <mxGeometry x="55" y="930" width="40" height="20" as="geometry" />
        </mxCell>
        <mxCell id="jEkatf-dR_FKRXyiLeA1-157" value="" style="endArrow=classic;html=1;exitX=0.5;exitY=1;exitDx=0;exitDy=0;entryX=0.5;entryY=0;entryDx=0;entryDy=0;" edge="1" parent="jEkatf-dR_FKRXyiLeA1-10" source="jEkatf-dR_FKRXyiLeA1-142" target="jEkatf-dR_FKRXyiLeA1-153">
          <mxGeometry width="50" height="50" relative="1" as="geometry">
            <mxPoint x="450" y="900" as="sourcePoint" />
            <mxPoint x="500" y="850" as="targetPoint" />
          </mxGeometry>
        </mxCell>
        <mxCell id="jEkatf-dR_FKRXyiLeA1-11" value="Form" style="swimlane;html=1;startSize=20;" vertex="1" parent="jEkatf-dR_FKRXyiLeA1-9">
          <mxGeometry x="160" y="20" width="230" height="1370" as="geometry" />
        </mxCell>
        <mxCell id="jEkatf-dR_FKRXyiLeA1-16" value="Show form" style="shape=ext;rounded=1;html=1;whiteSpace=wrap;" vertex="1" parent="jEkatf-dR_FKRXyiLeA1-11">
          <mxGeometry x="15" y="60" width="110" height="20" as="geometry" />
        </mxCell>
        <mxCell id="jEkatf-dR_FKRXyiLeA1-21" value="working hours" style="rhombus;whiteSpace=wrap;html=1;" vertex="1" parent="jEkatf-dR_FKRXyiLeA1-11">
          <mxGeometry x="36" y="140" width="70" height="52" as="geometry" />
        </mxCell>
        <mxCell id="jEkatf-dR_FKRXyiLeA1-24" value="Show warning message" style="shape=ext;rounded=1;html=1;whiteSpace=wrap;" vertex="1" parent="jEkatf-dR_FKRXyiLeA1-11">
          <mxGeometry x="20" y="230" width="100" height="30" as="geometry" />
        </mxCell>
        <mxCell id="jEkatf-dR_FKRXyiLeA1-33" value="No" style="text;html=1;strokeColor=none;fillColor=none;align=center;verticalAlign=middle;whiteSpace=wrap;rounded=0;" vertex="1" parent="jEkatf-dR_FKRXyiLeA1-11">
          <mxGeometry x="30" y="200" width="40" height="20" as="geometry" />
        </mxCell>
        <mxCell id="jEkatf-dR_FKRXyiLeA1-34" value="Yes" style="text;html=1;strokeColor=none;fillColor=none;align=center;verticalAlign=middle;whiteSpace=wrap;rounded=0;" vertex="1" parent="jEkatf-dR_FKRXyiLeA1-11">
          <mxGeometry x="-4" y="140" width="40" height="20" as="geometry" />
        </mxCell>
        <mxCell id="jEkatf-dR_FKRXyiLeA1-36" value="" style="endArrow=classic;html=1;exitX=0.5;exitY=1;exitDx=0;exitDy=0;" edge="1" parent="jEkatf-dR_FKRXyiLeA1-11" source="jEkatf-dR_FKRXyiLeA1-21">
          <mxGeometry width="50" height="50" relative="1" as="geometry">
            <mxPoint x="160" y="300" as="sourcePoint" />
            <mxPoint x="70" y="230" as="targetPoint" />
          </mxGeometry>
        </mxCell>
        <mxCell id="jEkatf-dR_FKRXyiLeA1-44" value="Show success message" style="shape=ext;rounded=1;html=1;whiteSpace=wrap;" vertex="1" parent="jEkatf-dR_FKRXyiLeA1-11">
          <mxGeometry x="36" y="460" width="110" height="30" as="geometry" />
        </mxCell>
        <mxCell id="jEkatf-dR_FKRXyiLeA1-45" value="Satisfied" style="rhombus;whiteSpace=wrap;html=1;" vertex="1" parent="jEkatf-dR_FKRXyiLeA1-11">
          <mxGeometry x="56" y="381" width="50" height="50" as="geometry" />
        </mxCell>
        <mxCell id="jEkatf-dR_FKRXyiLeA1-47" value="" style="endArrow=classic;html=1;exitX=1;exitY=0.5;exitDx=0;exitDy=0;entryX=1;entryY=0.5;entryDx=0;entryDy=0;" edge="1" parent="jEkatf-dR_FKRXyiLeA1-11" source="jEkatf-dR_FKRXyiLeA1-45" target="jEkatf-dR_FKRXyiLeA1-16">
          <mxGeometry width="50" height="50" relative="1" as="geometry">
            <mxPoint x="110" y="400" as="sourcePoint" />
            <mxPoint x="130" y="70" as="targetPoint" />
            <Array as="points">
              <mxPoint x="160" y="406" />
              <mxPoint x="160" y="70" />
            </Array>
          </mxGeometry>
        </mxCell>
        <mxCell id="jEkatf-dR_FKRXyiLeA1-48" value="No" style="text;html=1;strokeColor=none;fillColor=none;align=center;verticalAlign=middle;whiteSpace=wrap;rounded=0;" vertex="1" parent="jEkatf-dR_FKRXyiLeA1-11">
          <mxGeometry x="120" y="381" width="40" height="20" as="geometry" />
        </mxCell>
        <mxCell id="jEkatf-dR_FKRXyiLeA1-49" value="Yes" style="text;html=1;strokeColor=none;fillColor=none;align=center;verticalAlign=middle;whiteSpace=wrap;rounded=0;" vertex="1" parent="jEkatf-dR_FKRXyiLeA1-11">
          <mxGeometry x="90" y="431" width="40" height="20" as="geometry" />
        </mxCell>
        <mxCell id="jEkatf-dR_FKRXyiLeA1-50" value="" style="endArrow=classic;html=1;exitX=0.5;exitY=1;exitDx=0;exitDy=0;" edge="1" parent="jEkatf-dR_FKRXyiLeA1-11" source="jEkatf-dR_FKRXyiLeA1-45">
          <mxGeometry width="50" height="50" relative="1" as="geometry">
            <mxPoint x="160" y="350" as="sourcePoint" />
            <mxPoint x="83" y="459" as="targetPoint" />
          </mxGeometry>
        </mxCell>
        <mxCell id="jEkatf-dR_FKRXyiLeA1-60" value="send notification to mentor@algorit.ma" style="shape=ext;rounded=1;html=1;whiteSpace=wrap;" vertex="1" parent="jEkatf-dR_FKRXyiLeA1-11">
          <mxGeometry x="10" y="596" width="110" height="30" as="geometry" />
        </mxCell>
        <mxCell id="jEkatf-dR_FKRXyiLeA1-61" value="export data" style="shape=ext;rounded=1;html=1;whiteSpace=wrap;" vertex="1" parent="jEkatf-dR_FKRXyiLeA1-11">
          <mxGeometry x="140" y="596" width="80" height="20" as="geometry" />
        </mxCell>
        <mxCell id="jEkatf-dR_FKRXyiLeA1-62" value="" style="rounded=0;whiteSpace=wrap;html=1;fillColor=#1A1A1A;" vertex="1" parent="jEkatf-dR_FKRXyiLeA1-11">
          <mxGeometry x="46" y="550" width="144" height="10" as="geometry" />
        </mxCell>
        <mxCell id="jEkatf-dR_FKRXyiLeA1-63" value="" style="endArrow=classic;html=1;exitX=0.5;exitY=1;exitDx=0;exitDy=0;entryX=0.31;entryY=0.2;entryDx=0;entryDy=0;entryPerimeter=0;" edge="1" parent="jEkatf-dR_FKRXyiLeA1-11" source="jEkatf-dR_FKRXyiLeA1-44" target="jEkatf-dR_FKRXyiLeA1-62">
          <mxGeometry width="50" height="50" relative="1" as="geometry">
            <mxPoint x="160" y="550" as="sourcePoint" />
            <mxPoint x="93" y="540" as="targetPoint" />
          </mxGeometry>
        </mxCell>
        <mxCell id="jEkatf-dR_FKRXyiLeA1-64" value="" style="endArrow=classic;html=1;entryX=0.5;entryY=0;entryDx=0;entryDy=0;" edge="1" parent="jEkatf-dR_FKRXyiLeA1-11">
          <mxGeometry width="50" height="50" relative="1" as="geometry">
            <mxPoint x="65" y="562" as="sourcePoint" />
            <mxPoint x="65" y="595" as="targetPoint" />
          </mxGeometry>
        </mxCell>
        <mxCell id="jEkatf-dR_FKRXyiLeA1-12" value="Google Sheet" style="swimlane;html=1;startSize=20;" vertex="1" parent="jEkatf-dR_FKRXyiLeA1-9">
          <mxGeometry x="390" y="20" width="160" height="1370" as="geometry" />
        </mxCell>
        <mxCell id="jEkatf-dR_FKRXyiLeA1-66" value="Append new row to Piket Report Sheet" style="shape=ext;rounded=1;html=1;whiteSpace=wrap;" vertex="1" parent="jEkatf-dR_FKRXyiLeA1-12">
          <mxGeometry x="30" y="589" width="110" height="34" as="geometry" />
        </mxCell>
        <mxCell id="jEkatf-dR_FKRXyiLeA1-13" value="Freshdesk" style="swimlane;html=1;startSize=20;" vertex="1" parent="jEkatf-dR_FKRXyiLeA1-9">
          <mxGeometry x="550" y="20" width="220" height="1370" as="geometry" />
        </mxCell>
        <mxCell id="jEkatf-dR_FKRXyiLeA1-68" value="Receive email mentoring request" style="shape=ext;rounded=1;html=1;whiteSpace=wrap;" vertex="1" parent="jEkatf-dR_FKRXyiLeA1-13">
          <mxGeometry x="14" y="589" width="140" height="31" as="geometry" />
        </mxCell>
        <mxCell id="jEkatf-dR_FKRXyiLeA1-70" value="Send first respon email" style="shape=ext;rounded=1;html=1;whiteSpace=wrap;" vertex="1" parent="jEkatf-dR_FKRXyiLeA1-13">
          <mxGeometry x="35" y="700" width="100" height="30" as="geometry" />
        </mxCell>
        <mxCell id="jEkatf-dR_FKRXyiLeA1-73" value="" style="startArrow=oval;startFill=0;startSize=7;endArrow=block;endFill=0;endSize=10;dashed=1;html=1;entryX=0.75;entryY=0;entryDx=0;entryDy=0;" edge="1" parent="jEkatf-dR_FKRXyiLeA1-13" target="jEkatf-dR_FKRXyiLeA1-70">
          <mxGeometry width="100" relative="1" as="geometry">
            <mxPoint x="110" y="620" as="sourcePoint" />
            <mxPoint x="-120" y="670" as="targetPoint" />
          </mxGeometry>
        </mxCell>
        <mxCell id="jEkatf-dR_FKRXyiLeA1-20" value="Clickup" style="swimlane;html=1;startSize=20;" vertex="1" parent="jEkatf-dR_FKRXyiLeA1-9">
          <mxGeometry x="770" y="20" width="250" height="1370" as="geometry" />
        </mxCell>
        <mxCell id="jEkatf-dR_FKRXyiLeA1-74" value="Create new mentoring list" style="shape=ext;rounded=1;html=1;whiteSpace=wrap;" vertex="1" parent="jEkatf-dR_FKRXyiLeA1-20">
          <mxGeometry x="40" y="596" width="190" height="30" as="geometry" />
        </mxCell>
        <mxCell id="jEkatf-dR_FKRXyiLeA1-150" value="- Assign date&lt;br&gt;- Assign to" style="shape=ext;rounded=1;html=1;whiteSpace=wrap;" vertex="1" parent="jEkatf-dR_FKRXyiLeA1-20">
          <mxGeometry x="40" y="960" width="170" height="50" as="geometry" />
        </mxCell>
        <mxCell id="jEkatf-dR_FKRXyiLeA1-37" value="" style="endArrow=classic;html=1;exitX=0;exitY=0.5;exitDx=0;exitDy=0;entryX=0.163;entryY=-0.067;entryDx=0;entryDy=0;entryPerimeter=0;" edge="1" parent="jEkatf-dR_FKRXyiLeA1-9" source="jEkatf-dR_FKRXyiLeA1-21" target="jEkatf-dR_FKRXyiLeA1-28">
          <mxGeometry width="50" height="50" relative="1" as="geometry">
            <mxPoint x="320" y="320" as="sourcePoint" />
            <mxPoint x="370" y="270" as="targetPoint" />
            <Array as="points">
              <mxPoint x="55" y="186" />
            </Array>
          </mxGeometry>
        </mxCell>
        <mxCell id="jEkatf-dR_FKRXyiLeA1-38" value="" style="endArrow=classic;html=1;exitX=0;exitY=0.5;exitDx=0;exitDy=0;" edge="1" parent="jEkatf-dR_FKRXyiLeA1-9" source="jEkatf-dR_FKRXyiLeA1-24">
          <mxGeometry width="50" height="50" relative="1" as="geometry">
            <mxPoint x="320" y="320" as="sourcePoint" />
            <mxPoint x="90" y="359" as="targetPoint" />
            <Array as="points">
              <mxPoint x="90" y="265" />
            </Array>
          </mxGeometry>
        </mxCell>
        <mxCell id="jEkatf-dR_FKRXyiLeA1-41" value="" style="endArrow=classic;html=1;exitX=1;exitY=0.5;exitDx=0;exitDy=0;entryX=0;entryY=0.5;entryDx=0;entryDy=0;" edge="1" parent="jEkatf-dR_FKRXyiLeA1-9" source="jEkatf-dR_FKRXyiLeA1-15" target="jEkatf-dR_FKRXyiLeA1-16">
          <mxGeometry width="50" height="50" relative="1" as="geometry">
            <mxPoint x="320" y="270" as="sourcePoint" />
            <mxPoint x="370" y="220" as="targetPoint" />
          </mxGeometry>
        </mxCell>
        <mxCell id="jEkatf-dR_FKRXyiLeA1-42" value="" style="endArrow=classic;html=1;exitX=0.427;exitY=1.067;exitDx=0;exitDy=0;exitPerimeter=0;entryX=0.5;entryY=0;entryDx=0;entryDy=0;" edge="1" parent="jEkatf-dR_FKRXyiLeA1-9" source="jEkatf-dR_FKRXyiLeA1-16" target="jEkatf-dR_FKRXyiLeA1-19">
          <mxGeometry width="50" height="50" relative="1" as="geometry">
            <mxPoint x="320" y="270" as="sourcePoint" />
            <mxPoint x="370" y="220" as="targetPoint" />
            <Array as="points">
              <mxPoint x="222" y="120" />
              <mxPoint x="80" y="120" />
            </Array>
          </mxGeometry>
        </mxCell>
        <mxCell id="jEkatf-dR_FKRXyiLeA1-46" value="" style="endArrow=classic;html=1;entryX=0.08;entryY=0.5;entryDx=0;entryDy=0;entryPerimeter=0;exitX=1;exitY=0.5;exitDx=0;exitDy=0;" edge="1" parent="jEkatf-dR_FKRXyiLeA1-9" source="jEkatf-dR_FKRXyiLeA1-23" target="jEkatf-dR_FKRXyiLeA1-45">
          <mxGeometry width="50" height="50" relative="1" as="geometry">
            <mxPoint x="140" y="420" as="sourcePoint" />
            <mxPoint x="370" y="300" as="targetPoint" />
          </mxGeometry>
        </mxCell>
        <mxCell id="jEkatf-dR_FKRXyiLeA1-67" value="" style="endArrow=classic;html=1;exitX=1;exitY=0.5;exitDx=0;exitDy=0;entryX=0;entryY=0.5;entryDx=0;entryDy=0;" edge="1" parent="jEkatf-dR_FKRXyiLeA1-9" source="jEkatf-dR_FKRXyiLeA1-61" target="jEkatf-dR_FKRXyiLeA1-66">
          <mxGeometry width="50" height="50" relative="1" as="geometry">
            <mxPoint x="340" y="520" as="sourcePoint" />
            <mxPoint x="390" y="470" as="targetPoint" />
          </mxGeometry>
        </mxCell>
        <mxCell id="jEkatf-dR_FKRXyiLeA1-69" value="" style="endArrow=classic;html=1;entryX=0.567;entryY=1.097;entryDx=0;entryDy=0;entryPerimeter=0;" edge="1" parent="jEkatf-dR_FKRXyiLeA1-9" target="jEkatf-dR_FKRXyiLeA1-68">
          <mxGeometry width="50" height="50" relative="1" as="geometry">
            <mxPoint x="225" y="652" as="sourcePoint" />
            <mxPoint x="410" y="590" as="targetPoint" />
            <Array as="points">
              <mxPoint x="225" y="680" />
              <mxPoint x="643" y="680" />
            </Array>
          </mxGeometry>
        </mxCell>
        <mxCell id="jEkatf-dR_FKRXyiLeA1-75" value="Freskdesk Admin" style="swimlane;html=1;startSize=20;" vertex="1" parent="jEkatf-dR_FKRXyiLeA1-9">
          <mxGeometry x="1020" y="20" width="260" height="1370" as="geometry" />
        </mxCell>
        <mxCell id="jEkatf-dR_FKRXyiLeA1-76" value="Pair student with mentor based on Topic and Availability" style="shape=ext;rounded=1;html=1;whiteSpace=wrap;" vertex="1" parent="jEkatf-dR_FKRXyiLeA1-75">
          <mxGeometry x="40" y="596" width="190" height="30" as="geometry" />
        </mxCell>
        <mxCell id="jEkatf-dR_FKRXyiLeA1-78" value="" style="endArrow=block;endFill=1;endSize=6;html=1;exitX=1;exitY=0.25;exitDx=0;exitDy=0;" edge="1" parent="jEkatf-dR_FKRXyiLeA1-75">
          <mxGeometry width="100" relative="1" as="geometry">
            <mxPoint x="-20" y="608.5" as="sourcePoint" />
            <mxPoint x="40" y="609" as="targetPoint" />
          </mxGeometry>
        </mxCell>
        <mxCell id="jEkatf-dR_FKRXyiLeA1-86" value="Available" style="rhombus;whiteSpace=wrap;html=1;" vertex="1" parent="jEkatf-dR_FKRXyiLeA1-75">
          <mxGeometry x="107" y="660" width="60" height="50" as="geometry" />
        </mxCell>
        <mxCell id="jEkatf-dR_FKRXyiLeA1-88" value="Yes" style="text;html=1;strokeColor=none;fillColor=none;align=center;verticalAlign=middle;whiteSpace=wrap;rounded=0;" vertex="1" parent="jEkatf-dR_FKRXyiLeA1-75">
          <mxGeometry x="220" y="660" width="40" height="20" as="geometry" />
        </mxCell>
        <mxCell id="jEkatf-dR_FKRXyiLeA1-139" value="No" style="text;html=1;strokeColor=none;fillColor=none;align=center;verticalAlign=middle;whiteSpace=wrap;rounded=0;" vertex="1" parent="jEkatf-dR_FKRXyiLeA1-75">
          <mxGeometry x="90" y="750" width="40" height="20" as="geometry" />
        </mxCell>
        <mxCell id="jEkatf-dR_FKRXyiLeA1-149" value="Update mentoring detail" style="shape=ext;rounded=1;html=1;whiteSpace=wrap;" vertex="1" parent="jEkatf-dR_FKRXyiLeA1-75">
          <mxGeometry x="52" y="969" width="170" height="32" as="geometry" />
        </mxCell>
        <mxCell id="jEkatf-dR_FKRXyiLeA1-158" value="Cancel mentoring" style="shape=ext;rounded=1;html=1;whiteSpace=wrap;" vertex="1" parent="jEkatf-dR_FKRXyiLeA1-75">
          <mxGeometry x="40" y="910" width="100" height="30" as="geometry" />
        </mxCell>
        <mxCell id="jEkatf-dR_FKRXyiLeA1-164" value="" style="shape=mxgraph.bpmn.shape;html=1;verticalLabelPosition=bottom;labelBackgroundColor=#ffffff;verticalAlign=top;align=center;perimeter=ellipsePerimeter;outlineConnect=0;outline=end;symbol=general;fillColor=#FFFFFF;" vertex="1" parent="jEkatf-dR_FKRXyiLeA1-75">
          <mxGeometry x="192" y="910" width="30" height="30" as="geometry" />
        </mxCell>
        <mxCell id="jEkatf-dR_FKRXyiLeA1-165" value="" style="endArrow=classic;html=1;exitX=1;exitY=0.5;exitDx=0;exitDy=0;entryX=0;entryY=0.5;entryDx=0;entryDy=0;" edge="1" parent="jEkatf-dR_FKRXyiLeA1-75">
          <mxGeometry width="50" height="50" relative="1" as="geometry">
            <mxPoint x="140" y="929" as="sourcePoint" />
            <mxPoint x="192.00000000004275" y="929" as="targetPoint" />
          </mxGeometry>
        </mxCell>
        <mxCell id="jEkatf-dR_FKRXyiLeA1-83" value="Mentor" style="swimlane;html=1;startSize=20;" vertex="1" parent="jEkatf-dR_FKRXyiLeA1-9">
          <mxGeometry x="1280" y="20" width="250" height="1370" as="geometry" />
        </mxCell>
        <mxCell id="jEkatf-dR_FKRXyiLeA1-87" value="Confirm to admin via slack" style="shape=ext;rounded=1;html=1;whiteSpace=wrap;" vertex="1" parent="jEkatf-dR_FKRXyiLeA1-83">
          <mxGeometry x="40" y="668" width="170" height="32" as="geometry" />
        </mxCell>
        <mxCell id="jEkatf-dR_FKRXyiLeA1-145" value="Can do" style="rhombus;whiteSpace=wrap;html=1;" vertex="1" parent="jEkatf-dR_FKRXyiLeA1-83">
          <mxGeometry x="95" y="730" width="60" height="50" as="geometry" />
        </mxCell>
        <mxCell id="jEkatf-dR_FKRXyiLeA1-146" value="Yes" style="text;html=1;strokeColor=none;fillColor=none;align=center;verticalAlign=middle;whiteSpace=wrap;rounded=0;" vertex="1" parent="jEkatf-dR_FKRXyiLeA1-83">
          <mxGeometry x="80" y="800" width="40" height="20" as="geometry" />
        </mxCell>
        <mxCell id="jEkatf-dR_FKRXyiLeA1-147" value="No" style="text;html=1;strokeColor=none;fillColor=none;align=center;verticalAlign=middle;whiteSpace=wrap;rounded=0;" vertex="1" parent="jEkatf-dR_FKRXyiLeA1-83">
          <mxGeometry x="190" y="630" width="40" height="20" as="geometry" />
        </mxCell>
        <mxCell id="jEkatf-dR_FKRXyiLeA1-141" value="" style="endArrow=classic;html=1;exitX=1;exitY=0.5;exitDx=0;exitDy=0;entryX=0;entryY=0.5;entryDx=0;entryDy=0;" edge="1" parent="jEkatf-dR_FKRXyiLeA1-9" source="jEkatf-dR_FKRXyiLeA1-86" target="jEkatf-dR_FKRXyiLeA1-87">
          <mxGeometry width="50" height="50" relative="1" as="geometry">
            <mxPoint x="840" y="910" as="sourcePoint" />
            <mxPoint x="890" y="860" as="targetPoint" />
          </mxGeometry>
        </mxCell>
        <mxCell id="jEkatf-dR_FKRXyiLeA1-143" value="" style="endArrow=classic;html=1;exitX=0.5;exitY=1;exitDx=0;exitDy=0;" edge="1" parent="jEkatf-dR_FKRXyiLeA1-9" source="jEkatf-dR_FKRXyiLeA1-86">
          <mxGeometry width="50" height="50" relative="1" as="geometry">
            <mxPoint x="550" y="880" as="sourcePoint" />
            <mxPoint x="125" y="815" as="targetPoint" />
            <Array as="points">
              <mxPoint x="1157" y="815" />
            </Array>
          </mxGeometry>
        </mxCell>
        <mxCell id="jEkatf-dR_FKRXyiLeA1-148" value="" style="endArrow=classic;html=1;exitX=1;exitY=0.5;exitDx=0;exitDy=0;entryX=1;entryY=0.25;entryDx=0;entryDy=0;" edge="1" parent="jEkatf-dR_FKRXyiLeA1-9" source="jEkatf-dR_FKRXyiLeA1-145" target="jEkatf-dR_FKRXyiLeA1-76">
          <mxGeometry width="50" height="50" relative="1" as="geometry">
            <mxPoint x="1000" y="880" as="sourcePoint" />
            <mxPoint x="1050" y="830" as="targetPoint" />
            <Array as="points">
              <mxPoint x="1510" y="775" />
              <mxPoint x="1510" y="624" />
            </Array>
          </mxGeometry>
        </mxCell>
        <mxCell id="jEkatf-dR_FKRXyiLeA1-151" value="" style="endArrow=classic;html=1;exitX=0.5;exitY=1;exitDx=0;exitDy=0;entryX=1;entryY=0.5;entryDx=0;entryDy=0;" edge="1" parent="jEkatf-dR_FKRXyiLeA1-9" source="jEkatf-dR_FKRXyiLeA1-145" target="jEkatf-dR_FKRXyiLeA1-149">
          <mxGeometry width="50" height="50" relative="1" as="geometry">
            <mxPoint x="940" y="910" as="sourcePoint" />
            <mxPoint x="990" y="860" as="targetPoint" />
            <Array as="points">
              <mxPoint x="1405" y="876" />
              <mxPoint x="1405" y="1005" />
            </Array>
          </mxGeometry>
        </mxCell>
        <mxCell id="jEkatf-dR_FKRXyiLeA1-152" value="" style="endArrow=classic;html=1;entryX=1;entryY=0.5;entryDx=0;entryDy=0;exitX=0;exitY=0.5;exitDx=0;exitDy=0;" edge="1" parent="jEkatf-dR_FKRXyiLeA1-9" source="jEkatf-dR_FKRXyiLeA1-149" target="jEkatf-dR_FKRXyiLeA1-150">
          <mxGeometry width="50" height="50" relative="1" as="geometry">
            <mxPoint x="1060" y="935" as="sourcePoint" />
            <mxPoint x="990" y="860" as="targetPoint" />
          </mxGeometry>
        </mxCell>
        <mxCell id="jEkatf-dR_FKRXyiLeA1-156" value="" style="endArrow=classic;html=1;exitX=1;exitY=0.5;exitDx=0;exitDy=0;entryX=0.093;entryY=1.176;entryDx=0;entryDy=0;entryPerimeter=0;" edge="1" parent="jEkatf-dR_FKRXyiLeA1-9" source="jEkatf-dR_FKRXyiLeA1-153" target="jEkatf-dR_FKRXyiLeA1-76">
          <mxGeometry width="50" height="50" relative="1" as="geometry">
            <mxPoint x="430" y="830" as="sourcePoint" />
            <mxPoint x="480" y="780" as="targetPoint" />
            <Array as="points">
              <mxPoint x="118" y="840" />
              <mxPoint x="1078" y="840" />
            </Array>
          </mxGeometry>
        </mxCell>
        <mxCell id="jEkatf-dR_FKRXyiLeA1-160" value="" style="endArrow=classic;html=1;exitX=0.5;exitY=1;exitDx=0;exitDy=0;entryX=0;entryY=0.75;entryDx=0;entryDy=0;" edge="1" parent="jEkatf-dR_FKRXyiLeA1-9" source="jEkatf-dR_FKRXyiLeA1-153" target="jEkatf-dR_FKRXyiLeA1-158">
          <mxGeometry width="50" height="50" relative="1" as="geometry">
            <mxPoint x="550" y="1080" as="sourcePoint" />
            <mxPoint x="600" y="1030" as="targetPoint" />
            <Array as="points">
              <mxPoint x="75" y="945" />
            </Array>
          </mxGeometry>
        </mxCell>
        <mxCell id="jEkatf-dR_FKRXyiLeA1-22" value="" style="endArrow=classic;html=1;exitX=1;exitY=0.5;exitDx=0;exitDy=0;" edge="1" parent="jEkatf-dR_FKRXyiLeA1-9" source="jEkatf-dR_FKRXyiLeA1-19">
          <mxGeometry width="50" height="50" relative="1" as="geometry">
            <mxPoint x="360" y="240" as="sourcePoint" />
            <mxPoint x="231" y="160" as="targetPoint" />
            <Array as="points">
              <mxPoint x="231" y="140" />
            </Array>
          </mxGeometry>
        </mxCell>
        <mxCell id="jEkatf-dR_FKRXyiLeA1-65" value="" style="endArrow=classic;html=1;entryX=0.5;entryY=0;entryDx=0;entryDy=0;" edge="1" parent="1">
          <mxGeometry width="50" height="50" relative="1" as="geometry">
            <mxPoint x="399" y="732" as="sourcePoint" />
            <mxPoint x="399" y="765" as="targetPoint" />
          </mxGeometry>
        </mxCell>
        <mxCell id="jEkatf-dR_FKRXyiLeA1-72" value="" style="endArrow=classic;html=1;entryX=1;entryY=0.25;entryDx=0;entryDy=0;" edge="1" parent="1">
          <mxGeometry width="50" height="50" relative="1" as="geometry">
            <mxPoint x="650" y="883" as="sourcePoint" />
            <mxPoint x="200.5" y="882.5" as="targetPoint" />
          </mxGeometry>
        </mxCell>
        <mxCell id="jEkatf-dR_FKRXyiLeA1-79" value="" style="endArrow=block;endFill=1;endSize=6;html=1;exitX=0.25;exitY=0;exitDx=0;exitDy=0;" edge="1" parent="1" source="jEkatf-dR_FKRXyiLeA1-66">
          <mxGeometry width="100" relative="1" as="geometry">
            <mxPoint x="560" y="750" as="sourcePoint" />
            <mxPoint x="1000" y="760" as="targetPoint" />
            <Array as="points">
              <mxPoint x="518" y="730" />
              <mxPoint x="1000" y="730" />
            </Array>
          </mxGeometry>
        </mxCell>
        <mxCell id="jEkatf-dR_FKRXyiLeA1-140" value="" style="endArrow=classic;html=1;entryX=0.5;entryY=0;entryDx=0;entryDy=0;" edge="1" parent="1" target="jEkatf-dR_FKRXyiLeA1-86">
          <mxGeometry width="50" height="50" relative="1" as="geometry">
            <mxPoint x="1227" y="800" as="sourcePoint" />
            <mxPoint x="960" y="1010" as="targetPoint" />
          </mxGeometry>
        </mxCell>
      </root>
    </mxGraphModel>
  </diagram>
</mxfile>
